<svg xmlns="http://www.w3.org/2000/svg" width="25" height="24" viewBox="0 0 25 24">
    <path fill="#A0CBF5" fill-rule="nonzero" d="M23.161 4.177h-11.64L6.95 20.26a1.07 1.07 0 0 1-.98.741h-.037a1.07 1.07 0 0 1-.992-.67l-1.868-4.67h-1.77a1.068 1.068 0 1 1 0-2.137h2.494c.436 0 .83.266.992.671l1.035 2.588 3.9-14.002a1.068 1.068 0 0 1 1.017-.742h12.42a1.068 1.068 0 1 1 0 2.137zm.576 14.355l-4.211-4.73 4.013-4.455a.268.268 0 0 0-.198-.446H20.8a.269.269 0 0 0-.201.093l-2.694 3.124-2.673-3.123a.266.266 0 0 0-.203-.093h-2.655a.266.266 0 0 0-.199.444l3.968 4.456-4.178 4.731a.268.268 0 0 0-.043.287c.043.096.139.157.243.157h2.632c.079 0 .154-.035.205-.096l2.788-3.346 2.855 3.349c.05.06.125.093.203.093h2.69a.267.267 0 0 0 .199-.445z"/>
</svg>
