<svg xmlns="http://www.w3.org/2000/svg" width="25" height="24" viewBox="0 0 25 24">
    <g fill="#A0CBF5" fill-rule="nonzero">
        <path d="M.249 3.516v16.626c0 .828.663 1.436 1.436 1.436h9.721V2.025H1.685c-.773 0-1.436.663-1.436 1.491zM2.182 9.15l2.927-2.927c.166-.166.387-.221.608-.221.22 0 .442.11.608.22L9.252 9.15c.166.166.221.387.221.608 0 .22-.055.442-.221.607a.8.8 0 0 1-1.16 0L6.546 8.82V17.6a.85.85 0 0 1-.829.829.85.85 0 0 1-.829-.829V8.763L3.342 10.31a.801.801 0 0 1-1.16 0 .8.8 0 0 1 0-1.16zM22.785 2.025h-9.722v19.553h9.722c.828 0 1.436-.663 1.436-1.436V3.516c0-.828-.608-1.491-1.436-1.491zm-.442 13.146l-2.928 2.927c-.166.166-.386.221-.607.221-.221 0-.442-.11-.608-.22l-2.927-2.928a.8.8 0 0 1 0-1.16.8.8 0 0 1 1.16 0l1.546 1.546V6.775a.85.85 0 0 1 .829-.828.85.85 0 0 1 .828.828v8.782l1.547-1.546a.8.8 0 0 1 1.16 0c.165.166.22.386.22.607 0 .166-.11.387-.22.553z"/>
    </g>
</svg>
