<svg xmlns="http://www.w3.org/2000/svg" width="25" height="24" viewBox="0 0 25 24">
    <path fill="#A0CBF5" fill-rule="nonzero" d="M11.01 11.477c0 .429-.328.704-.88.704h-.435V10.83c.08-.015.233-.037.5-.037.51.009.815.234.815.685zM24.236 12c0 .93-.364 1.806-1.02 2.463l-1.474 1.475v2.083a3.49 3.49 0 0 1-3.484 3.484h-2.083l-1.473 1.474A3.468 3.468 0 0 1 12.236 24a3.463 3.463 0 0 1-2.465-1.022L8.3 21.508H6.215a3.468 3.468 0 0 1-2.464-1.02 3.46 3.46 0 0 1-1.02-2.465v-2.085l-1.474-1.472a3.462 3.462 0 0 1-1.02-2.464c0-.932.365-1.807 1.02-2.464l1.475-1.473V5.98a3.489 3.489 0 0 1 3.483-3.484H8.3l1.474-1.475A3.458 3.458 0 0 1 12.236 0c.932 0 1.806.363 2.465 1.022l1.472 1.472h2.084c.93 0 1.806.362 2.464 1.02.66.659 1.02 1.533 1.02 2.464v2.084l1.474 1.474A3.468 3.468 0 0 1 24.235 12zM7.764 10.009H4.77v4.896h1.111v-1.969h1.759v-.901H5.882v-1.119h1.883v-.908h-.001zm4.531 4.896c-.094-.19-.246-.827-.4-1.38-.123-.45-.311-.778-.654-.916v-.02c.42-.153.864-.581.864-1.207 0-.45-.16-.792-.45-1.024-.349-.276-.857-.386-1.584-.386-.59 0-1.119.045-1.475.103v4.83h1.097V12.98h.335c.45.008.661.175.792.786.145.602.261 1.003.34 1.14l1.135-.001zm3.732-.908h-2.015v-1.162h1.803v-.902h-1.803v-1.017h1.913v-.908h-3.023v4.896h3.125v-.907zm3.877 0H17.89v-1.162h1.802v-.902H17.89v-1.017h1.911v-.908h-3.021v4.896h3.123v-.907z"/>
</svg>
