<svg xmlns="http://www.w3.org/2000/svg" xmlns:xlink="http://www.w3.org/1999/xlink" width="24" height="24" viewBox="0 0 24 24">
    <defs>
        <path id="a" d="M0 0h23.423v23.425H0z"/>
    </defs>
    <g fill="none" fill-rule="evenodd" transform="translate(.236)">
        <mask id="b" fill="#fff">
            <use xlink:href="#a"/>
        </mask>
        <path fill="#A0CBF5" d="M.87 0c.385.177.51.48.508.899-.01 3.278-.006 6.556-.006 9.834v.28H2.91l.705-2.546c.47-1.694.937-3.39 1.412-5.082.345-1.23 1.35-2.01 2.574-2.006 1.23.004 2.224.778 2.563 2.018.67 2.452 1.334 4.906 2 7.358l.076.269h.263c3.362 0 6.724 0 10.086.002.099 0 .2-.003.295.019a.684.684 0 0 1-.158 1.35c-.663.007-1.326.003-1.99.003h-.262l-.619 2.276c-.488 1.8-.963 3.603-1.468 5.398-.32 1.141-1.091 1.826-2.272 1.955-1.095.12-1.97-.314-2.551-1.262-.156-.255-.256-.553-.336-.844-.684-2.495-1.358-4.994-2.039-7.506H1.372v10.247c0 .395-.2.663-.543.745-.318.076-.612-.089-.787-.44-.009-.018-.028-.031-.042-.047V.503C.11.277.276.11.503 0H.87z" mask="url(#b)"/>
    </g>
</svg>
